<svg id="icon-biceps" viewBox="0 0 16 16" xmlns="http://www.w3.org/2000/svg" xmlns:xlink="http://www.w3.org/1999/xlink">
		<path d="M15.798 6.56765C15.6723 6.47997 15.5117 6.45935 15.3679 6.51228L14.3723 6.879C13.6993 6.40054 12.8561 6.13966 11.9677 6.13966C10.74 6.13966 9.59677 6.65024 8.90061 7.49098C8.35888 7.13957 7.70952 7.01333 7.05408 7.14329C6.59553 7.23428 6.17691 7.44467 5.84593 7.73711C5.63645 6.51562 6.33161 5.36882 7.26 4.05699C7.67743 3.83598 8.20742 3.84929 8.76643 3.86345C9.10678 3.87201 9.45869 3.88091 9.79897 3.83476C10.3334 3.7623 10.7621 3.43655 10.9753 2.94109C11.1884 2.4456 11.13 1.91033 10.8151 1.47253L10.1773 0.585915C9.83894 0.115456 9.25699 -0.0978074 8.69485 0.0425868C7.02461 0.459832 5.53621 1.22339 4.27101 2.31211C3.23444 3.20407 2.3467 4.31356 1.63242 5.60976C0.348188 7.94031 0.0154358 10.1472 0.000155821 10.7365C-0.000625362 10.7669 0.0015307 10.7972 0.00662402 10.8271C0.186515 11.8863 0.968291 12.848 2.20793 13.5348C3.38877 14.1891 4.9068 14.5495 6.48235 14.5495C8.02184 14.5495 9.48753 14.211 10.6531 13.5912L13.1847 15.877C13.2707 15.9547 13.3824 15.9977 13.4983 15.9978L15.5294 16H15.5299C15.6542 16 15.7733 15.9507 15.8612 15.8629C15.9492 15.775 15.9986 15.6557 15.9986 15.5313V6.95212C15.9986 6.79885 15.9237 6.6553 15.798 6.56765Z" fill="#D54E49"/>

</svg>
