<svg xmlns="http://www.w3.org/2000/svg" xmlns:xlink="http://www.w3.org/1999/xlink">

    <symbol id="flag-ireland" viewBox="0 0 37 37">
            <path d="M2.77103 6.37915C1.24058 6.37915 0 7.61973 0 9.15018V27.8496C0 29.3799 1.24058 30.6206 2.77103 30.6206H12.3334V6.37915H2.77103Z"
                  fill="#73AF00"/>
            <path d="M24.6676 6.37915H12.334V30.6207H24.6676V6.37915Z" fill="#F5F5F5"/>
            <path d="M34.2293 6.37915H24.667V30.6205H34.2293C35.7597 30.6205 37.0003 29.3799 37.0003 27.8495V9.15018C37.0003 7.61973 35.7598 6.37915 34.2293 6.37915Z"
                  fill="#FF9B46"/>
    </symbol>
    <symbol id="flag-japan" viewBox="0 0 24 24" >
        <path d="M22.2026 4.13794H1.79742C0.804703 4.13794 0 4.94264 0 5.93536V18.0647C0 19.0574 0.804703 19.8622 1.79742 19.8622H22.2026C23.1952 19.8622 24 19.0575 24 18.0647V5.93536C24 4.94264 23.1953 4.13794 22.2026 4.13794Z" fill="#F5F5F5"/>
        <path d="M12.0008 16.5515C14.5145 16.5515 16.5523 14.5137 16.5523 11.9999C16.5523 9.48617 14.5145 7.44836 12.0008 7.44836C9.48702 7.44836 7.44922 9.48617 7.44922 11.9999C7.44922 14.5137 9.48702 16.5515 12.0008 16.5515Z" fill="#FF4B55"/>
    </symbol>
</svg>