<svg width="14" height="14" viewBox="0 0 14 14" fill="none" xmlns="http://www.w3.org/2000/svg">
<path d="M14.0002 6.13736C14.0002 5.36534 13.3565 4.73722 12.5653 4.73722H7.68102L8.32034 3.06001C8.32666 3.04347 8.33188 3.02649 8.33601 3.00926C8.56816 2.03779 8.23568 1.42789 7.91587 1.0873C7.52507 0.671099 6.97082 0.477943 6.66082 0.531782C6.541 0.552536 6.4366 0.625407 6.37576 0.730708L4.1709 4.54656V5.25027V12.5151V12.6824L6.10528 13.4485C6.15335 13.4676 6.20459 13.4773 6.2563 13.4773H11.4791C12.2703 13.4773 12.914 12.8492 12.914 12.0772C12.914 11.7866 12.8228 11.5163 12.6668 11.2923C13.0791 11.0461 13.3548 10.6025 13.3548 10.0972C13.3548 9.77162 13.2403 9.47166 13.0485 9.23357C13.3944 8.97769 13.6182 8.57254 13.6182 8.11729C13.6182 7.81564 13.5199 7.53597 13.353 7.30715C13.7426 7.05655 14.0002 6.62575 14.0002 6.13736Z" fill="#B4B7BD"/>
<path d="M3.3504 4.84009H0.410156C0.183641 4.84009 0 5.02373 0 5.25024V12.5151C0 12.7416 0.183641 12.9252 0.410156 12.9252H3.3504V4.84009Z" fill="#B4B7BD"/>
</svg>
