<svg width="16" height="16" viewBox="0 0 16 16" fill="none" xmlns="http://www.w3.org/2000/svg">
<path d="M15.8626 12.9641L14.1565 11.258L14.8438 10.5707C15.0269 10.3877 15.0269 10.0909 14.8438 9.90781C14.6608 9.72475 14.364 9.72475 14.1809 9.90778L9.9078 14.1809C9.72474 14.3639 9.72474 14.6607 9.9078 14.8438C9.99934 14.9353 10.1193 14.9811 10.2393 14.9811C10.3592 14.9811 10.4792 14.9353 10.5707 14.8438L11.258 14.1565L12.9642 15.8626C13.0557 15.9541 13.1757 15.9999 13.2956 15.9999C13.4156 15.9999 13.5356 15.9541 13.6271 15.8626L15.8626 13.627C16.0457 13.444 16.0457 13.1472 15.8626 12.9641Z" fill="#D54E49"/>
<path d="M3.70661 0.807998C3.37221 0.473687 2.73387 0.244813 1.75515 0.108407C1.08665 0.0152198 0.504155 0.00071984 0.479687 0.000126092C0.351875 -0.00284265 0.227875 0.0467197 0.137313 0.137313C0.0466885 0.227906 -0.00284257 0.351625 0.000126165 0.479718C0.000719913 0.504187 0.0151573 1.08662 0.108344 1.75512C0.244781 2.73374 0.473656 3.37205 0.80806 3.70649L4.43864 7.33703L7.33713 4.43851L3.70661 0.807998Z" fill="#D54E49"/>
<path d="M11.5615 8.66287L8.66309 11.5613L9.93252 12.8307L12.8309 9.9323L11.5615 8.66287Z" fill="#D54E49"/>
<path d="M6.09209 14.1811L4.80147 12.8905L2.5063 10.5953L1.81899 9.90802C1.63595 9.72499 1.33914 9.72499 1.15608 9.90805C0.97302 10.0911 0.97302 10.3879 1.15608 10.571L1.84339 11.2583L0.137273 12.9644C-0.0457576 13.1474 -0.0457576 13.4442 0.137273 13.6273L2.3728 15.8628C2.4607 15.9507 2.57995 16.0001 2.70426 16.0001C2.82858 16.0001 2.94779 15.9507 3.03573 15.8628L4.74185 14.1567L5.42922 14.844C5.52075 14.9356 5.64072 14.9813 5.76066 14.9813C5.88063 14.9813 6.00059 14.9356 6.09209 14.844C6.27516 14.6609 6.27516 14.3642 6.09209 14.1811Z" fill="#D54E49"/>
<path d="M15.8624 0.137282C15.7718 0.0466885 15.6481 -0.00284257 15.52 0.000126166C15.4955 0.000719914 14.9131 0.0151886 14.2446 0.108376C13.2659 0.244813 12.6276 0.473624 12.2931 0.808029L3.16895 9.93227L6.0674 12.8307L15.1916 3.70649C15.526 3.37208 15.7549 2.73377 15.8913 1.75509C15.9845 1.08662 15.999 0.504155 15.9996 0.479687C16.0026 0.351594 15.953 0.227875 15.8624 0.137282Z" fill="#D54E49"/>
</svg>
