<svg width="17" height="17" viewBox="0 0 17 17" fill="none" xmlns="http://www.w3.org/2000/svg">
				<path d="M12.2934 9.80396L15.2184 6.48714L12.2934 3.17032C12.057 2.90199 12.0846 2.49451 12.3554 2.26015C12.6263 2.02601 13.0375 2.05353 13.2743 2.32165L16.5735 6.0629C16.788 6.30586 16.788 6.66861 16.5735 6.91157L13.2742 10.6528C13.1453 10.7986 12.9649 10.8735 12.7835 10.8735C12.6315 10.8735 12.479 10.821 12.3554 10.7141C12.0845 10.4798 12.0568 10.0723 12.2934 9.80396Z" fill="#2A3042"/>
				<path d="M5.53414 5.84277H16.0832C16.4429 5.84277 16.7344 6.13151 16.7344 6.48782C16.7344 6.84409 16.4429 7.13286 16.0832 7.13286H5.53414C3.64292 7.13286 2.10439 8.65687 2.10439 10.5301C2.10439 12.4033 3.64292 13.9273 5.53414 13.9273H15.215C15.5746 13.9273 15.8661 14.2161 15.8661 14.5724C15.8661 14.9287 15.5746 15.2174 15.215 15.2174H5.53414C2.9251 15.2174 0.802051 13.1146 0.802051 10.5301C0.802051 7.94562 2.92488 5.84277 5.53414 5.84277Z" fill="#2A3042"/>

</svg>
