<svg width="23" height="18" viewBox="0 0 23 18" fill="none" xmlns="http://www.w3.org/2000/svg">
<path d="M22.2405 10.3167L14.978 17.6084C14.7447 17.8417 14.453 17.9584 14.1613 17.9584C13.8697 17.9584 13.578 17.8417 13.3447 17.6084C12.878 17.1417 12.878 16.4126 13.3447 15.9459L18.6238 10.6376H1.59049C0.948828 10.6376 0.423828 10.1126 0.423828 9.47089C0.423828 8.82923 0.948828 8.30423 1.59049 8.30423H18.6238L13.3447 2.9959C12.878 2.52923 12.878 1.80006 13.3447 1.3334C13.8113 0.866732 14.5405 0.866732 15.0072 1.3334L22.2697 8.62506C22.7072 9.1209 22.7072 9.87923 22.2405 10.3167Z" fill="#54B869"/>
</svg>
