<svg width="14" height="14" viewBox="0 0 14 14" fill="none" xmlns="http://www.w3.org/2000/svg">
<path d="M6.34025 9.70121C6.30642 9.66825 6.16175 9.5438 6.04275 9.42787C5.29433 8.74821 4.06933 6.9752 3.69542 6.04721C3.63533 5.90628 3.50817 5.54997 3.5 5.3596C3.5 5.17718 3.542 5.00329 3.62717 4.83735C3.74617 4.6305 3.93342 4.46456 4.1545 4.37364C4.30792 4.31511 4.767 4.22418 4.77517 4.22418C5.27742 4.13326 6.0935 4.08325 6.99533 4.08325C7.85458 4.08325 8.63742 4.13326 9.14725 4.2077C9.15542 4.21623 9.72592 4.30715 9.92133 4.4066C10.2783 4.58902 10.5 4.94532 10.5 5.32664V5.3596C10.4912 5.60793 10.2696 6.13018 10.2614 6.13018C9.88692 7.00816 8.722 8.74026 7.94792 9.43639C7.94792 9.43639 7.749 9.63245 7.62475 9.71769C7.44625 9.85067 7.22517 9.91658 7.00408 9.91658C6.75733 9.91658 6.5275 9.84214 6.34025 9.70121Z" fill="#CFC5C5"/>
</svg>
