<svg width="16" height="16" viewBox="0 0 16 16" fill="none" xmlns="http://www.w3.org/2000/svg">
    <path d="M6.28517 3.44387V0.571277C6.28507 0.255672 6.02916 -0.000100418 5.71355 2.95757e-08C5.5517 3.3512e-05 5.39748 0.0687394 5.28913 0.188975L0.146256 5.90332C-0.0418154 6.11278 -0.049349 6.42799 0.128543 6.64619L5.27145 12.9319C5.47127 13.1762 5.83128 13.2122 6.07557 13.0124C6.20789 12.9042 6.2848 12.7423 6.28517 12.5714V9.72393C10.7995 9.87078 13.6167 11.8005 14.8864 15.6097C14.9643 15.8427 15.1824 15.9999 15.4281 16C15.4589 16.0001 15.4897 15.9976 15.5201 15.9925C15.7966 15.9474 15.9996 15.7086 15.9996 15.4285C15.9995 8.69933 11.9487 3.75586 6.28517 3.44387Z" fill="#B4B7BD"/>
</svg>
