<svg xmlns="http://www.w3.org/2000/svg" xmlns:xlink="http://www.w3.org/1999/xlink">

    <symbol id="flag-ireland" viewBox="0 0 37 37">
            <path d="M2.77103 6.37915C1.24058 6.37915 0 7.61973 0 9.15018V27.8496C0 29.3799 1.24058 30.6206 2.77103 30.6206H12.3334V6.37915H2.77103Z"
                  fill="#73AF00"/>
            <path d="M24.6676 6.37915H12.334V30.6207H24.6676V6.37915Z" fill="#F5F5F5"/>
            <path d="M34.2293 6.37915H24.667V30.6205H34.2293C35.7597 30.6205 37.0003 29.3799 37.0003 27.8495V9.15018C37.0003 7.61973 35.7598 6.37915 34.2293 6.37915Z"
                  fill="#FF9B46"/>
    </symbol>
    <symbol id="flag-japan" viewBox="0 0 24 24" >
        <path d="M22.2026 4.13794H1.79742C0.804703 4.13794 0 4.94264 0 5.93536V18.0647C0 19.0574 0.804703 19.8622 1.79742 19.8622H22.2026C23.1952 19.8622 24 19.0575 24 18.0647V5.93536C24 4.94264 23.1953 4.13794 22.2026 4.13794Z" fill="#F5F5F5"/>
        <path d="M12.0008 16.5515C14.5145 16.5515 16.5523 14.5137 16.5523 11.9999C16.5523 9.48617 14.5145 7.44836 12.0008 7.44836C9.48702 7.44836 7.44922 9.48617 7.44922 11.9999C7.44922 14.5137 9.48702 16.5515 12.0008 16.5515Z" fill="#FF4B55"/>
    </symbol>
    <symbol id="flag-ua" viewBox="0 0 20 20">
        <path d="M0 15.0539C0 15.8811 0.670586 16.5517 1.49785 16.5517H18.5021C19.3294 16.5517 20 15.8811 20 15.0539V10H0V15.0539Z" fill="#FFE15A"/>
        <path d="M18.5021 3.44824H1.49785C0.670586 3.44824 0 4.11883 0 4.94609V9.99996H20V4.94609C20 4.11883 19.3294 3.44824 18.5021 3.44824Z" fill="#4173CD"/>
    </symbol>

    <symbol  id="flag-usa" viewBox="0 0 20 20">
        <path d="M18.5021 3.44788H1.49785C0.670586 3.44788 0 4.11846 0 4.94573V15.0535C0 15.8807 0.670586 16.5514 1.49785 16.5514H18.5021C19.3294 16.5514 20 15.8808 20 15.0535V4.94573C20 4.11846 19.3294 3.44788 18.5021 3.44788Z" fill="#F5F5F5"/>
        <path d="M0.0820312 4.45584H19.9172C19.7143 3.86924 19.1574 3.44788 18.5018 3.44788H1.4975C0.841875 3.44788 0.285039 3.86924 0.0820312 4.45584Z" fill="#FF4B55"/>
        <path d="M20 7.47986H0V8.48779H20V7.47986Z" fill="#FF4B55"/>
        <path d="M20 5.46313H0V6.47106H20V5.46313Z" fill="#FF4B55"/>
        <path d="M0 10.1585C0 10.3489 0.154414 10.5033 0.344844 10.5033H20V9.49536H0V10.1585Z" fill="#FF4B55"/>
        <path d="M20 13.5278H0V14.5358H20V13.5278Z" fill="#FF4B55"/>
        <path d="M19.9173 15.5438H0.0820312C0.285039 16.1304 0.841914 16.5518 1.4975 16.5518H18.5018C19.1574 16.5518 19.7143 16.1304 19.9173 15.5438Z" fill="#FF4B55"/>
        <path d="M20 11.5121H0V12.52H20V11.5121Z" fill="#FF4B55"/>
        <path d="M0.344844 10.5036H8.96555C9.15598 10.5036 9.31039 10.3492 9.31039 10.1588V3.79272C9.31039 3.60225 9.15598 3.44788 8.96555 3.44788H1.49785C0.670586 3.44792 0 4.1185 0 4.94577V10.1588C0 10.3492 0.154414 10.5036 0.344844 10.5036Z" fill="#41479B"/>
        <path d="M0.966263 4.23988L1.04259 4.46879L1.28388 4.47062C1.31513 4.4709 1.32806 4.51074 1.30294 4.5293L1.10884 4.67262L1.18165 4.90266C1.19111 4.93242 1.15716 4.95711 1.13173 4.93891L0.935443 4.79863L0.739154 4.93895C0.713725 4.95715 0.679857 4.93246 0.689232 4.9027L0.762045 4.67266L0.567944 4.52934C0.542827 4.51074 0.555756 4.4709 0.587006 4.47066L0.828295 4.46883L0.904623 4.23992C0.914466 4.21023 0.956341 4.21023 0.966263 4.23988Z" fill="#F5F5F5"/>
        <path d="M0.966263 5.43675L1.04259 5.66566L1.28388 5.6675C1.31513 5.66777 1.32806 5.70758 1.30294 5.72617L1.10884 5.86953L1.18165 6.09957C1.19111 6.12934 1.15716 6.15403 1.13173 6.13582L0.935443 5.99555L0.739154 6.13586C0.713725 6.15403 0.679857 6.12938 0.689232 6.09961L0.762045 5.86957L0.567944 5.72621C0.542827 5.70762 0.555756 5.66781 0.587006 5.66754L0.828295 5.6657L0.904623 5.43679C0.914466 5.40714 0.956341 5.40714 0.966263 5.43675Z" fill="#F5F5F5"/>
        <path d="M0.966263 6.63417L1.04259 6.86308L1.28388 6.86491C1.31513 6.86519 1.32806 6.90499 1.30294 6.92358L1.10884 7.06694L1.18165 7.29698C1.19111 7.32675 1.15716 7.35144 1.13173 7.33323L0.935443 7.19296L0.739154 7.33327C0.713725 7.35144 0.679857 7.32683 0.689232 7.29702L0.762045 7.06698L0.567944 6.92362C0.542827 6.90503 0.555756 6.86523 0.587006 6.86495L0.828295 6.86312L0.904623 6.63421C0.914466 6.60452 0.956341 6.60452 0.966263 6.63417Z" fill="#F5F5F5"/>
        <path d="M0.966263 7.83229L1.04259 8.06119L1.28388 8.06303C1.31513 8.0633 1.32806 8.10315 1.30294 8.1217L1.10884 8.26506L1.18165 8.4951C1.19111 8.52486 1.15716 8.54955 1.13173 8.53134L0.935443 8.39107L0.739154 8.53138C0.713725 8.54955 0.679857 8.5249 0.689232 8.49513L0.762045 8.2651L0.567944 8.12174C0.542827 8.10322 0.555756 8.06334 0.587006 8.06307L0.828295 8.06123L0.904623 7.83233C0.914466 7.80264 0.956341 7.80264 0.966263 7.83229Z" fill="#F5F5F5"/>
        <path d="M0.966263 9.02928L1.04259 9.25819L1.28388 9.26002C1.31513 9.2603 1.32806 9.3001 1.30294 9.3187L1.10884 9.46206L1.18165 9.69209C1.19111 9.72186 1.15716 9.74655 1.13173 9.72834L0.935443 9.58807L0.739154 9.72838C0.713725 9.74655 0.679857 9.7219 0.689232 9.69213L0.762045 9.46209L0.567944 9.31874C0.542827 9.30014 0.555756 9.26034 0.587006 9.26006L0.828295 9.25823L0.904623 9.02932C0.914466 8.99967 0.956341 8.99967 0.966263 9.02928Z" fill="#F5F5F5"/>
        <path d="M1.89595 4.82726L1.97228 5.05617L2.21357 5.058C2.24482 5.05828 2.25775 5.09812 2.23263 5.11668L2.03853 5.26004L2.11134 5.49008C2.12079 5.51984 2.08685 5.54453 2.06142 5.52633L1.86513 5.38601L1.66884 5.52633C1.64341 5.54449 1.60955 5.51984 1.61892 5.49008L1.69173 5.26004L1.49763 5.11668C1.47251 5.09808 1.48544 5.05828 1.51669 5.058L1.75798 5.05617L1.83431 4.82726C1.84415 4.79765 1.88607 4.79765 1.89595 4.82726Z" fill="#F5F5F5"/>
        <path d="M1.89595 6.02468L1.97228 6.25358L2.21357 6.25542C2.24482 6.25569 2.25775 6.29554 2.23263 6.31409L2.03853 6.45745L2.11134 6.68749C2.12079 6.71726 2.08685 6.74194 2.06142 6.72374L1.86513 6.58343L1.66884 6.72374C1.64341 6.7419 1.60955 6.71729 1.61892 6.68749L1.69173 6.45745L1.49763 6.31409C1.47251 6.29558 1.48544 6.25569 1.51669 6.25542L1.75798 6.25358L1.83431 6.02468C1.84415 5.99503 1.88607 5.99503 1.89595 6.02468Z" fill="#F5F5F5"/>
        <path d="M1.89595 7.22182L1.97228 7.45073L2.21357 7.45256C2.24482 7.45284 2.25775 7.49264 2.23263 7.51124L2.03853 7.6546L2.11134 7.88464C2.12079 7.9144 2.08685 7.93909 2.06142 7.92089L1.86513 7.78057L1.66884 7.92089C1.64341 7.93905 1.60955 7.9144 1.61892 7.88464L1.69173 7.6546L1.49763 7.51124C1.47251 7.49264 1.48544 7.45284 1.51669 7.45256L1.75798 7.45073L1.83431 7.22182C1.84415 7.19217 1.88607 7.19217 1.89595 7.22182Z" fill="#F5F5F5"/>
        <path d="M1.89595 8.41869L1.97228 8.6476L2.21357 8.64943C2.24482 8.64971 2.25775 8.68951 2.23263 8.7081L2.03853 8.85146L2.11134 9.0815C2.12079 9.11127 2.08685 9.13595 2.06142 9.11775L1.86513 8.97744L1.66884 9.11775C1.64341 9.13595 1.60955 9.11127 1.61892 9.0815L1.69173 8.85146L1.49763 8.7081C1.47251 8.68951 1.48544 8.64971 1.51669 8.64943L1.75798 8.6476L1.83431 8.41869C1.84415 8.38908 1.88607 8.38908 1.89595 8.41869Z" fill="#F5F5F5"/>
        <path d="M2.82564 4.23977L2.90197 4.46867L3.14325 4.47051C3.1745 4.47078 3.18743 4.51063 3.16232 4.52918L2.96822 4.6725L3.04103 4.90254C3.05048 4.93231 3.01654 4.95699 2.99111 4.93879L2.79482 4.79848L2.59853 4.93879C2.5731 4.95699 2.53923 4.93231 2.54861 4.90254L2.62142 4.6725L2.42732 4.52918C2.4022 4.51059 2.41513 4.47074 2.44638 4.47051L2.68767 4.46867L2.764 4.23977C2.77384 4.21012 2.81576 4.21012 2.82564 4.23977Z" fill="#F5F5F5"/>
        <path d="M2.82564 5.43761L2.90197 5.66652L3.14325 5.66835C3.1745 5.66863 3.18743 5.70843 3.16232 5.72703L2.96822 5.87039L3.04103 6.10042C3.05048 6.13019 3.01654 6.15488 2.99111 6.13667L2.79482 5.99636L2.59853 6.13667C2.5731 6.15484 2.53923 6.13019 2.54861 6.10042L2.62142 5.87039L2.42732 5.72703C2.4022 5.70843 2.41513 5.66863 2.44638 5.66835L2.68767 5.66652L2.764 5.43761C2.77384 5.408 2.81576 5.408 2.82564 5.43761Z" fill="#F5F5F5"/>
        <path d="M2.82564 6.63503L2.90197 6.86394L3.14325 6.86577C3.1745 6.86605 3.18743 6.90585 3.16232 6.92444L2.96822 7.0678L3.04103 7.29784C3.05048 7.32761 3.01654 7.3523 2.99111 7.33409L2.79482 7.19378L2.59853 7.33409C2.5731 7.35226 2.53923 7.32765 2.54861 7.29784L2.62142 7.0678L2.42732 6.92444C2.4022 6.90585 2.41513 6.86605 2.44638 6.86577L2.68767 6.86394L2.764 6.63503C2.77384 6.60538 2.81576 6.60538 2.82564 6.63503Z" fill="#F5F5F5"/>
        <path d="M2.82564 7.83217L2.90197 8.06108L3.14325 8.06292C3.1745 8.06319 3.18743 8.10303 3.16232 8.12159L2.96822 8.26495L3.04103 8.49499C3.05048 8.52475 3.01654 8.54944 2.99111 8.53124L2.79482 8.39093L2.59853 8.53124C2.5731 8.5494 2.53923 8.52475 2.54861 8.49499L2.62142 8.26495L2.42732 8.12159C2.4022 8.10307 2.41513 8.06319 2.44638 8.06292L2.68767 8.06108L2.764 7.83217C2.77384 7.80252 2.81576 7.80252 2.82564 7.83217Z" fill="#F5F5F5"/>
        <path d="M2.82564 9.02904L2.90197 9.25795L3.14325 9.25978C3.1745 9.26006 3.18743 9.29986 3.16232 9.31846L2.96822 9.46181L3.04103 9.69185C3.05048 9.72162 3.01654 9.74631 2.99111 9.7281L2.79482 9.58779L2.59853 9.7281C2.5731 9.74627 2.53923 9.72162 2.54861 9.69185L2.62142 9.46181L2.42732 9.31846C2.4022 9.29986 2.41513 9.26006 2.44638 9.25978L2.68767 9.25795L2.764 9.02904C2.77384 8.99943 2.81576 8.99943 2.82564 9.02904Z" fill="#F5F5F5"/>
        <path d="M3.75533 4.82726L3.83165 5.05617L4.07294 5.058C4.10419 5.05828 4.11712 5.09812 4.09201 5.11668L3.8979 5.26004L3.97072 5.49008C3.98017 5.51984 3.94623 5.54453 3.9208 5.52633L3.72451 5.38601L3.52822 5.52633C3.50279 5.54449 3.46892 5.51984 3.4783 5.49008L3.55111 5.26004L3.35701 5.11668C3.33189 5.09808 3.34482 5.05828 3.37607 5.058L3.61736 5.05617L3.69369 4.82726C3.70349 4.79765 3.74544 4.79765 3.75533 4.82726Z" fill="#F5F5F5"/>
        <path d="M3.75533 6.02468L3.83165 6.25358L4.07294 6.25542C4.10419 6.25569 4.11712 6.29554 4.09201 6.31409L3.8979 6.45745L3.97072 6.68749C3.98017 6.71726 3.94623 6.74194 3.9208 6.72374L3.72451 6.58343L3.52822 6.72374C3.50279 6.7419 3.46892 6.71729 3.4783 6.68749L3.55111 6.45745L3.35701 6.31409C3.33189 6.29558 3.34482 6.25569 3.37607 6.25542L3.61736 6.25358L3.69369 6.02468C3.70349 5.99503 3.74544 5.99503 3.75533 6.02468Z" fill="#F5F5F5"/>
        <path d="M3.75533 7.22182L3.83165 7.45073L4.07294 7.45256C4.10419 7.45284 4.11712 7.49264 4.09201 7.51124L3.8979 7.6546L3.97072 7.88464C3.98017 7.9144 3.94623 7.93909 3.9208 7.92089L3.72451 7.78057L3.52822 7.92089C3.50279 7.93905 3.46892 7.9144 3.4783 7.88464L3.55111 7.6546L3.35701 7.51124C3.33189 7.49264 3.34482 7.45284 3.37607 7.45256L3.61736 7.45073L3.69369 7.22182C3.70349 7.19217 3.74544 7.19217 3.75533 7.22182Z" fill="#F5F5F5"/>
        <path d="M3.75533 8.41869L3.83165 8.6476L4.07294 8.64943C4.10419 8.64971 4.11712 8.68951 4.09201 8.7081L3.8979 8.85146L3.97072 9.0815C3.98017 9.11127 3.94623 9.13595 3.9208 9.11775L3.72451 8.97744L3.52822 9.11775C3.50279 9.13595 3.46892 9.11127 3.4783 9.0815L3.55111 8.85146L3.35701 8.7081C3.33189 8.68951 3.34482 8.64971 3.37607 8.64943L3.61736 8.6476L3.69369 8.41869C3.70349 8.38908 3.74544 8.38908 3.75533 8.41869Z" fill="#F5F5F5"/>
        <path d="M4.68505 4.23988L4.76138 4.46879L5.00267 4.47062C5.03392 4.4709 5.04685 4.51074 5.02173 4.5293L4.82763 4.67262L4.90045 4.90266C4.9099 4.93242 4.87595 4.95711 4.85052 4.93891L4.65419 4.79863L4.45791 4.93895C4.43248 4.95715 4.39861 4.93246 4.40798 4.9027L4.4808 4.67266L4.28669 4.52934C4.26158 4.51074 4.27451 4.4709 4.30576 4.47066L4.54705 4.46883L4.62337 4.23992C4.63326 4.21023 4.67517 4.21023 4.68505 4.23988Z" fill="#F5F5F5"/>
        <path d="M4.68505 5.43761L4.76138 5.66652L5.00267 5.66835C5.03392 5.66863 5.04685 5.70843 5.02173 5.72703L4.82763 5.87039L4.90045 6.10042C4.9099 6.13019 4.87595 6.15488 4.85052 6.13667L4.65419 5.99636L4.45791 6.13667C4.43248 6.15484 4.39861 6.13019 4.40798 6.10042L4.4808 5.87039L4.28669 5.72703C4.26158 5.70843 4.27451 5.66863 4.30576 5.66835L4.54705 5.66652L4.62337 5.43761C4.63326 5.408 4.67517 5.408 4.68505 5.43761Z" fill="#F5F5F5"/>
        <path d="M4.68505 6.63491L4.76138 6.86382L5.00267 6.86565C5.03392 6.86593 5.04685 6.90573 5.02173 6.92433L4.82763 7.06769L4.90045 7.29772C4.9099 7.32749 4.87595 7.35218 4.85052 7.33397L4.65419 7.19362L4.45791 7.33394C4.43248 7.3521 4.39861 7.32745 4.40798 7.29769L4.4808 7.06765L4.28669 6.92429C4.26158 6.90569 4.27451 6.86589 4.30576 6.86562L4.54705 6.86378L4.62337 6.63487C4.63326 6.60526 4.67517 6.60526 4.68505 6.63491Z" fill="#F5F5F5"/>
        <path d="M4.68505 7.83217L4.76138 8.06108L5.00267 8.06292C5.03392 8.06319 5.04685 8.10303 5.02173 8.12159L4.82763 8.26495L4.90045 8.49499C4.9099 8.52475 4.87595 8.54944 4.85052 8.53124L4.65419 8.39093L4.45791 8.53124C4.43248 8.5494 4.39861 8.52475 4.40798 8.49499L4.4808 8.26495L4.28669 8.12159C4.26158 8.10307 4.27451 8.06319 4.30576 8.06292L4.54705 8.06108L4.62337 7.83217C4.63326 7.80252 4.67517 7.80252 4.68505 7.83217Z" fill="#F5F5F5"/>
        <path d="M4.68505 9.02904L4.76138 9.25795L5.00267 9.25978C5.03392 9.26006 5.04685 9.29986 5.02173 9.31846L4.82763 9.46181L4.90045 9.69185C4.9099 9.72162 4.87595 9.74631 4.85052 9.7281L4.65419 9.58779L4.45791 9.7281C4.43248 9.74627 4.39861 9.72162 4.40798 9.69185L4.4808 9.46181L4.28669 9.31846C4.26158 9.29986 4.27451 9.26006 4.30576 9.25978L4.54705 9.25795L4.62337 9.02904C4.63326 8.99943 4.67517 8.99943 4.68505 9.02904Z" fill="#F5F5F5"/>
        <path d="M5.6147 4.82726L5.69103 5.05617L5.93231 5.058C5.96356 5.05828 5.97649 5.09812 5.95137 5.11668L5.75727 5.26004L5.83009 5.49008C5.83954 5.51984 5.80559 5.54453 5.78016 5.52633L5.58388 5.38601L5.38759 5.52633C5.36216 5.54449 5.32829 5.51984 5.33767 5.49008L5.41048 5.26004L5.21638 5.11668C5.19126 5.09808 5.20419 5.05828 5.23544 5.058L5.47673 5.05617L5.55306 4.82726C5.56294 4.79765 5.60482 4.79765 5.6147 4.82726Z" fill="#F5F5F5"/>
        <path d="M5.6147 6.02468L5.69103 6.25358L5.93231 6.25542C5.96356 6.25569 5.97649 6.29554 5.95137 6.31409L5.75727 6.45745L5.83009 6.68749C5.83954 6.71726 5.80559 6.74194 5.78016 6.72374L5.58388 6.58343L5.38759 6.72374C5.36216 6.7419 5.32829 6.71729 5.33767 6.68749L5.41048 6.45745L5.21638 6.31409C5.19126 6.29558 5.20419 6.25569 5.23544 6.25542L5.47673 6.25358L5.55306 6.02468C5.56294 5.99503 5.60482 5.99503 5.6147 6.02468Z" fill="#F5F5F5"/>
        <path d="M5.6147 7.22182L5.69103 7.45073L5.93231 7.45256C5.96356 7.45284 5.97649 7.49264 5.95137 7.51124L5.75727 7.6546L5.83009 7.88464C5.83954 7.9144 5.80559 7.93909 5.78016 7.92089L5.58388 7.78057L5.38759 7.92089C5.36216 7.93905 5.32829 7.9144 5.33767 7.88464L5.41048 7.6546L5.21638 7.51124C5.19126 7.49264 5.20419 7.45284 5.23544 7.45256L5.47673 7.45073L5.55306 7.22182C5.56294 7.19217 5.60482 7.19217 5.6147 7.22182Z" fill="#F5F5F5"/>
        <path d="M5.6147 8.41869L5.69103 8.6476L5.93231 8.64943C5.96356 8.64971 5.97649 8.68951 5.95137 8.7081L5.75727 8.85146L5.83009 9.0815C5.83954 9.11127 5.80559 9.13595 5.78016 9.11775L5.58388 8.97744L5.38759 9.11775C5.36216 9.13595 5.32829 9.11127 5.33767 9.0815L5.41048 8.85146L5.21638 8.7081C5.19126 8.68951 5.20419 8.64971 5.23544 8.64943L5.47673 8.6476L5.55306 8.41869C5.56294 8.38908 5.60482 8.38908 5.6147 8.41869Z" fill="#F5F5F5"/>
        <path d="M6.54048 4.23977L6.61681 4.46867L6.85809 4.47051C6.88934 4.47078 6.90227 4.51063 6.87716 4.52918L6.68306 4.6725L6.75587 4.90254C6.76532 4.93231 6.73138 4.95699 6.70595 4.93879L6.50966 4.79848L6.31337 4.93879C6.28794 4.95699 6.25408 4.93231 6.26345 4.90254L6.33626 4.6725L6.14216 4.52918C6.11705 4.51059 6.12997 4.47074 6.16122 4.47051L6.40251 4.46867L6.47884 4.23977C6.48864 4.21012 6.5306 4.21012 6.54048 4.23977Z" fill="#F5F5F5"/>
        <path d="M6.54048 5.43761L6.61681 5.66652L6.85809 5.66835C6.88934 5.66863 6.90227 5.70843 6.87716 5.72703L6.68306 5.87039L6.75587 6.10042C6.76532 6.13019 6.73138 6.15488 6.70595 6.13667L6.50966 5.99636L6.31337 6.13667C6.28794 6.15484 6.25408 6.13019 6.26345 6.10042L6.33626 5.87039L6.14216 5.72703C6.11705 5.70843 6.12997 5.66863 6.16122 5.66835L6.40251 5.66652L6.47884 5.43761C6.48864 5.408 6.5306 5.408 6.54048 5.43761Z" fill="#F5F5F5"/>
        <path d="M6.54048 6.63503L6.61681 6.86394L6.85809 6.86577C6.88934 6.86605 6.90227 6.90585 6.87716 6.92444L6.68306 7.0678L6.75587 7.29784C6.76532 7.32761 6.73138 7.3523 6.70595 7.33409L6.50966 7.19378L6.31337 7.33409C6.28794 7.35226 6.25408 7.32765 6.26345 7.29784L6.33626 7.0678L6.14216 6.92444C6.11705 6.90585 6.12997 6.86605 6.16122 6.86577L6.40251 6.86394L6.47884 6.63503C6.48864 6.60538 6.5306 6.60538 6.54048 6.63503Z" fill="#F5F5F5"/>
        <path d="M6.54048 7.83217L6.61681 8.06108L6.85809 8.06292C6.88934 8.06319 6.90227 8.10303 6.87716 8.12159L6.68306 8.26495L6.75587 8.49499C6.76532 8.52475 6.73138 8.54944 6.70595 8.53124L6.50966 8.39093L6.31337 8.53124C6.28794 8.5494 6.25408 8.52475 6.26345 8.49499L6.33626 8.26495L6.14216 8.12159C6.11705 8.10307 6.12997 8.06319 6.16122 8.06292L6.40251 8.06108L6.47884 7.83217C6.48864 7.80252 6.5306 7.80252 6.54048 7.83217Z" fill="#F5F5F5"/>
        <path d="M6.54048 9.02904L6.61681 9.25795L6.85809 9.25978C6.88934 9.26006 6.90227 9.29986 6.87716 9.31846L6.68306 9.46181L6.75587 9.69185C6.76532 9.72162 6.73138 9.74631 6.70595 9.7281L6.50966 9.58779L6.31337 9.7281C6.28794 9.74627 6.25408 9.72162 6.26345 9.69185L6.33626 9.46181L6.14216 9.31846C6.11705 9.29986 6.12997 9.26006 6.16122 9.25978L6.40251 9.25795L6.47884 9.02904C6.48864 8.99943 6.5306 8.99943 6.54048 9.02904Z" fill="#F5F5F5"/>
        <path d="M7.47017 4.82726L7.5465 5.05617L7.78778 5.058C7.81903 5.05828 7.83196 5.09812 7.80685 5.11668L7.61275 5.26004L7.68556 5.49008C7.69501 5.51984 7.66107 5.54453 7.63564 5.52633L7.43935 5.38601L7.24306 5.52633C7.21763 5.54449 7.18376 5.51984 7.19314 5.49008L7.26595 5.26004L7.07185 5.11668C7.04673 5.09808 7.05966 5.05828 7.09091 5.058L7.3322 5.05617L7.40853 4.82726C7.41837 4.79765 7.46029 4.79765 7.47017 4.82726Z" fill="#F5F5F5"/>
        <path d="M7.47017 6.02468L7.5465 6.25358L7.78778 6.25542C7.81903 6.25569 7.83196 6.29554 7.80685 6.31409L7.61275 6.45745L7.68556 6.68749C7.69501 6.71726 7.66107 6.74194 7.63564 6.72374L7.43935 6.58343L7.24306 6.72374C7.21763 6.7419 7.18376 6.71729 7.19314 6.68749L7.26595 6.45745L7.07185 6.31409C7.04673 6.29558 7.05966 6.25569 7.09091 6.25542L7.3322 6.25358L7.40853 6.02468C7.41837 5.99503 7.46029 5.99503 7.47017 6.02468Z" fill="#F5F5F5"/>
        <path d="M7.47017 7.22182L7.5465 7.45073L7.78778 7.45256C7.81903 7.45284 7.83196 7.49264 7.80685 7.51124L7.61275 7.6546L7.68556 7.88464C7.69501 7.9144 7.66107 7.93909 7.63564 7.92089L7.43935 7.78057L7.24306 7.92089C7.21763 7.93905 7.18376 7.9144 7.19314 7.88464L7.26595 7.6546L7.07185 7.51124C7.04673 7.49264 7.05966 7.45284 7.09091 7.45256L7.3322 7.45073L7.40853 7.22182C7.41837 7.19217 7.46029 7.19217 7.47017 7.22182Z" fill="#F5F5F5"/>
        <path d="M7.47017 8.41869L7.5465 8.6476L7.78778 8.64943C7.81903 8.64971 7.83196 8.68951 7.80685 8.7081L7.61275 8.85146L7.68556 9.0815C7.69501 9.11127 7.66107 9.13595 7.63564 9.11775L7.43935 8.97744L7.24306 9.11775C7.21763 9.13595 7.18376 9.11127 7.19314 9.0815L7.26595 8.85146L7.07185 8.7081C7.04673 8.68951 7.05966 8.64971 7.09091 8.64943L7.3322 8.6476L7.40853 8.41869C7.41837 8.38908 7.46029 8.38908 7.47017 8.41869Z" fill="#F5F5F5"/>
        <path d="M8.40181 4.23977L8.47814 4.46867L8.71943 4.47051C8.75068 4.47078 8.76361 4.51063 8.73849 4.52918L8.54439 4.6725L8.6172 4.90254C8.62666 4.93231 8.59271 4.95699 8.56728 4.93879L8.37099 4.79848L8.1747 4.93879C8.14927 4.95699 8.11541 4.93231 8.12478 4.90254L8.19759 4.6725L8.00349 4.52918C7.97837 4.51059 7.9913 4.47074 8.02255 4.47051L8.26384 4.46867L8.34017 4.23977C8.35002 4.21012 8.39189 4.21012 8.40181 4.23977Z" fill="#F5F5F5"/>
        <path d="M8.40181 5.43761L8.47814 5.66652L8.71943 5.66835C8.75068 5.66863 8.76361 5.70843 8.73849 5.72703L8.54439 5.87039L8.6172 6.10042C8.62666 6.13019 8.59271 6.15488 8.56728 6.13667L8.37099 5.99636L8.1747 6.13667C8.14927 6.15484 8.11541 6.13019 8.12478 6.10042L8.19759 5.87039L8.00349 5.72703C7.97837 5.70843 7.9913 5.66863 8.02255 5.66835L8.26384 5.66652L8.34017 5.43761C8.35002 5.408 8.39189 5.408 8.40181 5.43761Z" fill="#F5F5F5"/>
        <path d="M8.40181 6.63503L8.47814 6.86394L8.71943 6.86577C8.75068 6.86605 8.76361 6.90585 8.73849 6.92444L8.54439 7.0678L8.6172 7.29784C8.62666 7.32761 8.59271 7.3523 8.56728 7.33409L8.37099 7.19378L8.1747 7.33409C8.14927 7.35226 8.11541 7.32765 8.12478 7.29784L8.19759 7.0678L8.00349 6.92444C7.97837 6.90585 7.9913 6.86605 8.02255 6.86577L8.26384 6.86394L8.34017 6.63503C8.35002 6.60538 8.39189 6.60538 8.40181 6.63503Z" fill="#F5F5F5"/>
        <path d="M8.40181 7.83217L8.47814 8.06108L8.71943 8.06292C8.75068 8.06319 8.76361 8.10303 8.73849 8.12159L8.54439 8.26495L8.6172 8.49499C8.62666 8.52475 8.59271 8.54944 8.56728 8.53124L8.37099 8.39093L8.1747 8.53124C8.14927 8.5494 8.11541 8.52475 8.12478 8.49499L8.19759 8.26495L8.00349 8.12159C7.97837 8.10307 7.9913 8.06319 8.02255 8.06292L8.26384 8.06108L8.34017 7.83217C8.35002 7.80252 8.39189 7.80252 8.40181 7.83217Z" fill="#F5F5F5"/>
        <path d="M8.40181 9.02904L8.47814 9.25795L8.71943 9.25978C8.75068 9.26006 8.76361 9.29986 8.73849 9.31846L8.54439 9.46181L8.6172 9.69185C8.62666 9.72162 8.59271 9.74631 8.56728 9.7281L8.37099 9.58779L8.1747 9.7281C8.14927 9.74627 8.11541 9.72162 8.12478 9.69185L8.19759 9.46181L8.00349 9.31846C7.97837 9.29986 7.9913 9.26006 8.02255 9.25978L8.26384 9.25795L8.34017 9.02904C8.35002 8.99943 8.39189 8.99943 8.40181 9.02904Z" fill="#F5F5F5"/>
    </symbol>


</svg>