<svg width="19" height="22" viewBox="0 0 19 22" fill="none" xmlns="http://www.w3.org/2000/svg">
		<path d="M15.4046 17.5721C15.4046 17.1702 15.2611 16.857 14.974 16.6325C14.6921 16.408 14.1936 16.1758 13.4784 15.9356C12.7633 15.6955 12.1786 15.4632 11.7245 15.2388C10.2472 14.5132 9.50859 13.5161 9.50859 12.2477C9.50859 11.616 9.69129 11.0601 10.0567 10.5799C10.4273 10.0944 10.9493 9.71855 11.6227 9.45233C12.2961 9.18089 13.053 9.04517 13.8934 9.04517C14.713 9.04517 15.4464 9.19133 16.0937 9.48365C16.7462 9.77597 17.2525 10.1936 17.6127 10.7365C17.9729 11.2741 18.153 11.8901 18.153 12.5844H15.4125C15.4125 12.1198 15.2689 11.7596 14.9818 11.5038C14.6999 11.248 14.3162 11.1201 13.8308 11.1201C13.3401 11.1201 12.9512 11.2298 12.6641 11.449C12.3822 11.663 12.2413 11.9371 12.2413 12.2712C12.2413 12.5635 12.3979 12.8297 12.7111 13.0698C13.0243 13.3047 13.575 13.5501 14.3632 13.8058C15.1515 14.0564 15.7987 14.3279 16.3051 14.6202C17.537 15.3301 18.153 16.3089 18.153 17.5565C18.153 18.5535 17.7771 19.3365 17.0255 19.9055C16.2738 20.4745 15.2428 20.759 13.9326 20.759C13.0086 20.759 12.1708 20.5945 11.4191 20.2657C10.6727 19.9316 10.1089 19.4774 9.72783 18.9032C9.35198 18.3238 9.16406 17.6582 9.16406 16.9066H11.9202C11.9202 17.5173 12.0768 17.9688 12.3901 18.2612C12.7085 18.5483 13.2226 18.6918 13.9326 18.6918C14.3867 18.6918 14.7443 18.5952 15.0053 18.4021C15.2715 18.2037 15.4046 17.9271 15.4046 17.5721Z"
		      fill="#575F78"/>
		<path d="M5.30879 12.7633L7.57951 4.46338H10.6489L6.81216 15.864H3.80542L0 4.46338H3.0459L5.30879 12.7633Z"
		      fill="#575F78"/>
		<path d="M10.8481 1.02733L12.0264 1.02726L5.67164 21.0175L4.58112 21.0723L10.8481 1.02733Z" fill="#575F78"/>
</svg>
