<svg xmlns="http://www.w3.org/2000/svg" xmlns:xlink="http://www.w3.org/1999/xlink">
    <symbol id="icon-insta" viewBox="0 0 35 35">
        <path d="M21.3982 9H13.6017C11.0643 9 9 11.0643 9 13.6017V21.3984C9 23.9357 11.0643 26 13.6017 26H21.3984C23.9357 26 26 23.9357 26 21.3984V13.6017C26 11.0643 23.9357 9 21.3982 9V9ZM17.5 22.1483C14.9369 22.1483 12.8517 20.0631 12.8517 17.5C12.8517 14.9369 14.9369 12.8517 17.5 12.8517C20.0631 12.8517 22.1483 14.9369 22.1483 17.5C22.1483 20.0631 20.0631 22.1483 17.5 22.1483ZM22.2594 13.9479C21.502 13.9479 20.8859 13.3318 20.8859 12.5744C20.8859 11.8169 21.502 11.2007 22.2594 11.2007C23.0169 11.2007 23.6331 11.8169 23.6331 12.5744C23.6331 13.3318 23.0169 13.9479 22.2594 13.9479Z" fill="currentColor"/>
        <path d="M17.4998 13.8484C15.4864 13.8484 13.8481 15.4865 13.8481 17.5001C13.8481 19.5135 15.4864 21.1518 17.4998 21.1518C19.5134 21.1518 21.1515 19.5135 21.1515 17.5001C21.1515 15.4865 19.5134 13.8484 17.4998 13.8484Z" fill="currentColor"/>
        <path d="M22.2592 12.1975C22.0515 12.1975 21.8823 12.3666 21.8823 12.5744C21.8823 12.7822 22.0515 12.9513 22.2592 12.9513C22.4671 12.9513 22.6363 12.7823 22.6363 12.5744C22.6363 12.3665 22.4671 12.1975 22.2592 12.1975Z" fill="currentColor"/>
    </symbol>

    <symbol id="icon-fb" viewBox="0 0 35 35">
        <path d="M22.2492 8.00395L19.7854 8C17.0173 8 15.2285 9.8353 15.2285 12.6759V14.8318H12.7512C12.5371 14.8318 12.3638 15.0054 12.3638 15.2195V18.3431C12.3638 18.5572 12.5373 18.7306 12.7512 18.7306H15.2285V26.6126C15.2285 26.8267 15.4018 27 15.6159 27H18.8481C19.0621 27 19.2355 26.8265 19.2355 26.6126V18.7306H22.132C22.3461 18.7306 22.5194 18.5572 22.5194 18.3431L22.5206 15.2195C22.5206 15.1167 22.4797 15.0182 22.4071 14.9455C22.3346 14.8728 22.2358 14.8318 22.133 14.8318H19.2355V13.0042C19.2355 12.1258 19.4448 11.6799 20.5891 11.6799L22.2488 11.6793C22.4627 11.6793 22.636 11.5058 22.636 11.2919V8.39137C22.636 8.1777 22.4629 8.00435 22.2492 8.00395Z" fill="currentColor"/>
    </symbol>

    <symbol id="icon-tg" viewBox="0 0 35 35">
        <path d="M15.4553 20.0183L15.141 24.439C15.5906 24.439 15.7854 24.2458 16.0189 24.0138L18.1271 21.999L22.4956 25.1982C23.2967 25.6447 23.8612 25.4095 24.0773 24.4611L26.9447 11.025L26.9455 11.0242C27.1996 9.83983 26.5172 9.3767 25.7366 9.66725L8.88206 16.1201C7.73177 16.5666 7.74918 17.2079 8.68652 17.4984L12.9956 18.8387L23.0046 12.5758C23.4756 12.2639 23.9039 12.4365 23.5516 12.7484L15.4553 20.0183Z" fill="currentColor"/>
    </symbol>

    <symbol id="icon-vk" viewBox="0 0 35 35">
        <path d="M23.766 18.3138C23.4589 17.9258 23.5468 17.7533 23.766 17.4065C23.77 17.4025 26.3057 13.8986 26.567 12.7103L26.5685 12.7095C26.6984 12.2765 26.5685 11.9583 25.9408 11.9583H23.8634C23.3346 11.9583 23.0907 12.2314 22.9601 12.537C22.9601 12.537 21.9025 15.0687 20.4062 16.7098C19.9233 17.184 19.7 17.336 19.4364 17.336C19.3066 17.336 19.1047 17.184 19.1047 16.751V12.7095C19.1047 12.1902 18.9567 11.9583 18.5189 11.9583H15.2525C14.9208 11.9583 14.7236 12.2005 14.7236 12.4261C14.7236 12.9185 15.4718 13.0318 15.5493 14.4172V17.4231C15.5493 18.0818 15.4298 18.2029 15.1646 18.2029C14.4584 18.2029 12.7445 15.6609 11.7288 12.7515C11.5237 12.187 11.3234 11.959 10.7906 11.959H8.7125C8.11954 11.959 8 12.2322 8 12.5378C8 13.0777 8.70617 15.7622 11.2838 19.3089C13.0017 21.7298 15.4211 23.0416 17.6219 23.0416C18.9448 23.0416 19.1063 22.7503 19.1063 22.2491C19.1063 19.9359 18.9868 19.7174 19.6494 19.7174C19.9565 19.7174 20.4854 19.8694 21.7204 21.0371C23.1319 22.4217 23.3639 23.0416 24.154 23.0416H26.2313C26.8235 23.0416 27.1235 22.7503 26.9509 22.1755C26.5559 20.9666 23.8864 18.48 23.766 18.3138Z" fill="currentColor"/>
    </symbol>

    <symbol id="icon-ytb" viewBox="0 0 35 35">
        <path d="M26.0299 13.0479C25.8247 12.2848 25.223 11.6833 24.46 11.4778C23.0662 11.0964 17.4905 11.0964 17.4905 11.0964C17.4905 11.0964 11.9151 11.0964 10.5212 11.4634C9.77288 11.6686 9.15655 12.285 8.95129 13.0479C8.58447 14.4417 8.58447 17.3322 8.58447 17.3322C8.58447 17.3322 8.58447 20.2373 8.95129 21.6165C9.15677 22.3795 9.7582 22.981 10.5213 23.1865C11.9298 23.568 17.4907 23.568 17.4907 23.568C17.4907 23.568 23.0662 23.568 24.46 23.2011C25.2231 22.9957 25.8247 22.3942 26.0302 21.6312C26.3969 20.2373 26.3969 17.3469 26.3969 17.3469C26.3969 17.3469 26.4115 14.4417 26.0299 13.0479ZM15.7153 20.0026V14.6619L20.3518 17.3322L15.7153 20.0026Z" fill="currentColor"/>
    </symbol>

    <symbol id="icon-search" viewBox="0 0 21 21">
        <path fill-rule="evenodd" clip-rule="evenodd" d="M1.75 9.33619C1.75 5.14645 5.1103 1.75 9.25543 1.75C11.246 1.75 13.155 2.54926 14.5626 3.97194C15.9701 5.39463 16.7609 7.3242 16.7609 9.33619C16.7609 13.5259 13.4006 16.9224 9.25543 16.9224C5.1103 16.9224 1.75 13.5259 1.75 9.33619ZM16.6367 15.4475L18.872 17.2519H18.9108C19.3631 17.709 19.3631 18.4501 18.9108 18.9072C18.4586 19.3643 17.7254 19.3643 17.2731 18.9072L15.4181 16.7811C15.2428 16.6045 15.1442 16.3646 15.1442 16.1143C15.1442 15.8641 15.2428 15.6241 15.4181 15.4475C15.7563 15.1116 16.2985 15.1116 16.6367 15.4475Z" fill="currentColor"/>
    </symbol>

    <symbol  id="icon-calendar" viewBox="0 0 12 14">
        <path fill-rule="evenodd" clip-rule="evenodd" d="M8.94059 0.845786L8.94125 1.34554C10.7777 1.48946 11.9908 2.74084 11.9927 4.65987L12 10.2771C12.0026 12.3693 10.6882 13.6567 8.5812 13.66L3.43459 13.6667C1.3408 13.6694 0.00987771 12.3514 0.00724484 10.2531L4.43317e-06 4.70185C-0.00262844 2.77016 1.16768 1.52211 3.00411 1.35353L3.00346 0.853782C3.0028 0.560595 3.22001 0.340039 3.50963 0.340039C3.79924 0.339373 4.01645 0.559262 4.01711 0.852449L4.01777 1.31888L7.92759 1.31355L7.92693 0.847118C7.92627 0.553932 8.14349 0.334042 8.4331 0.333376C8.71614 0.332709 8.93993 0.552599 8.94059 0.845786ZM1.01428 4.90775L10.9797 4.89442V4.66121C10.9514 3.22859 10.2326 2.47697 8.94252 2.36502L8.94318 2.8781C8.94318 3.16462 8.72004 3.39184 8.43701 3.39184C8.14739 3.39251 7.92952 3.16596 7.92952 2.87943L7.92886 2.3397L4.01904 2.34503L4.0197 2.8841C4.0197 3.17129 3.80315 3.39784 3.51353 3.39784C3.22392 3.39851 3.00605 3.17262 3.00605 2.88543L3.00539 2.37235C1.72186 2.50096 1.01164 3.25525 1.01362 4.70052L1.01428 4.90775ZM8.15997 7.93625V7.94358C8.16655 8.2501 8.41667 8.48265 8.72011 8.47598C9.01631 8.46865 9.25261 8.21478 9.24602 7.90827C9.2322 7.61508 8.99459 7.37587 8.69905 7.37653C8.39627 7.3832 8.15931 7.62974 8.15997 7.93625ZM8.70357 10.9281C8.40079 10.9214 8.15659 10.6689 8.15593 10.3624C8.14935 10.0559 8.39223 9.802 8.69501 9.79467H8.70159C9.01095 9.79467 9.26174 10.0472 9.26174 10.3604C9.26239 10.6736 9.01227 10.9274 8.70357 10.9281ZM5.44791 7.94686C5.46107 8.25338 5.71186 8.49259 6.01464 8.47926C6.31083 8.46527 6.54714 8.21206 6.53397 7.90555C6.52673 7.6057 6.28319 7.37249 5.98699 7.37315C5.68421 7.38648 5.44725 7.64035 5.44791 7.94686ZM6.01731 10.8981C5.71453 10.9114 5.4644 10.6722 5.45058 10.3657C5.45058 10.0591 5.68688 9.80594 5.98966 9.79195C6.28586 9.79128 6.53006 10.0245 6.53664 10.3237C6.55047 10.6309 6.31351 10.8841 6.01731 10.8981ZM2.73613 7.97023C2.74929 8.27674 3.00007 8.51662 3.30286 8.50263C3.59905 8.4893 3.83535 8.23543 3.82153 7.92892C3.81495 7.62907 3.57141 7.39585 3.27455 7.39652C2.97177 7.40984 2.73547 7.66372 2.73613 7.97023ZM3.30553 10.9014C3.00274 10.9154 2.75262 10.6756 2.7388 10.369C2.73814 10.0625 2.9751 9.80865 3.27788 9.79533C3.57408 9.79466 3.81828 10.0279 3.82486 10.3277C3.83868 10.6342 3.60238 10.8881 3.30553 10.9014Z" fill="currentColor"/>
    </symbol>

    <symbol id="icon-chart" viewBox="0 0 18 18">
        <path fill-rule="evenodd" clip-rule="evenodd" d="M5.10866 0.666992H12.8912C15.7253 0.666992 17.3253 2.27449 17.3337 5.10866V12.892C17.3337 15.7253 15.7253 17.3337 12.8912 17.3337H5.10866C2.27449 17.3337 0.666992 15.7253 0.666992 12.892V5.10866C0.666992 2.27449 2.27449 0.666992 5.10866 0.666992ZM9.04109 13.8837C9.40026 13.8837 9.69943 13.617 9.73276 13.2587V4.767C9.76609 4.50867 9.64193 4.2495 9.41693 4.10867C9.18276 3.967 8.89943 3.967 8.67526 4.10867C8.44943 4.2495 8.32526 4.50867 8.34943 4.767V13.2587C8.39193 13.617 8.69109 13.8837 9.04109 13.8837ZM12.8753 13.8837C13.2253 13.8837 13.5245 13.617 13.567 13.2587V10.5253C13.5912 10.2578 13.467 10.0087 13.2412 9.867C13.017 9.72533 12.7337 9.72533 12.5003 9.867C12.2745 10.0087 12.1503 10.2578 12.1837 10.5253V13.2587C12.217 13.617 12.5162 13.8837 12.8753 13.8837ZM5.84942 13.2587C5.81608 13.617 5.51692 13.8837 5.15775 13.8837C4.79942 13.8837 4.49942 13.617 4.46692 13.2587V7.50033C4.44192 7.24116 4.56608 6.98366 4.79192 6.842C5.01608 6.70033 5.30025 6.70033 5.52525 6.842C5.74942 6.98366 5.87525 7.24116 5.84942 7.50033V13.2587Z" fill="currentColor"/>
    </symbol>


    <symbol id="icon-activiti" viewBox="0 0 18 18">
        <path fill-rule="evenodd" clip-rule="evenodd" d="M13.3162 2.67502C13.3162 1.56669 14.2162 0.666687 15.3245 0.666687C16.4328 0.666687 17.3328 1.56669 17.3328 2.67502C17.3328 3.78335 16.4328 4.68335 15.3245 4.68335C14.2162 4.68335 13.3162 3.78335 13.3162 2.67502ZM10.1077 11.2994L12.516 8.19194L12.4827 8.20861C12.616 8.02528 12.641 7.79194 12.5494 7.58361C12.4585 7.37528 12.2577 7.23361 12.0419 7.21694C11.816 7.19194 11.5919 7.29194 11.4577 7.47528L9.44186 10.0836L7.13269 8.26694C6.99102 8.15861 6.82436 8.11611 6.65769 8.13361C6.49186 8.15861 6.34186 8.24944 6.24102 8.38278L3.77519 11.5919L3.72436 11.6669C3.58269 11.9328 3.64936 12.2744 3.89936 12.4586C4.01602 12.5336 4.14102 12.5836 4.28269 12.5836C4.47519 12.5919 4.65769 12.4911 4.77436 12.3336L6.86602 9.64111L9.24102 11.4253L9.31602 11.4744C9.58269 11.6161 9.91602 11.5503 10.1077 11.2994ZM11.8743 2.15027C11.841 2.35861 11.8243 2.56694 11.8243 2.77527C11.8243 4.65027 13.341 6.16611 15.2077 6.16611C15.416 6.16611 15.616 6.14194 15.8244 6.10861V12.8328C15.8244 15.6586 14.1577 17.3336 11.3243 17.3336H5.16685C2.33268 17.3336 0.666016 15.6586 0.666016 12.8328V6.66694C0.666016 3.83361 2.33268 2.15027 5.16685 2.15027H11.8743Z" fill="currentColor"/>
    </symbol>

    <symbol id="icon-glove-mma" viewBox="0 0 14 14">
        <path d="M7.42574 8.9362C7.37488 8.88504 7.30431 8.85608 7.23242 8.85608C7.16023 8.85608 7.08996 8.88506 7.0391 8.9362C6.98797 8.98706 6.95898 9.05736 6.95898 9.12952C6.95898 9.20143 6.98797 9.27198 7.0391 9.32284C7.08996 9.37367 7.16023 9.40295 7.23242 9.40295C7.30433 9.40295 7.37461 9.37369 7.42574 9.32284C7.4766 9.2717 7.50586 9.20143 7.50586 9.12952C7.50586 9.05733 7.4766 8.98706 7.42574 8.9362Z" fill="currentColor"/>
        <path d="M12.4182 5.64835C12.3673 5.5975 12.2968 5.56824 12.2246 5.56824C12.1527 5.56824 12.0824 5.5975 12.0313 5.64835C11.9804 5.69921 11.9512 5.76976 11.9512 5.84167C11.9512 5.91359 11.9804 5.98413 12.0313 6.03499C12.0824 6.08585 12.1527 6.11511 12.2246 6.11511C12.2968 6.11511 12.3673 6.08585 12.4182 6.03499C12.4691 5.98413 12.498 5.91359 12.498 5.84167C12.498 5.76976 12.4691 5.69921 12.4182 5.64835Z" fill="currentColor"/>
        <path d="M10.8913 0.861489H10.8059C10.6468 0.861489 10.4968 0.900836 10.3647 0.969988C10.2542 0.565384 9.88354 0.267065 9.44435 0.267065H8.70687C8.50007 0.267065 8.30858 0.333401 8.15212 0.445619C7.98294 0.178117 7.68465 0 7.3454 0H6.60791C6.24268 0 5.9249 0.206335 5.76458 0.508455C5.61526 0.411467 5.43736 0.354866 5.24642 0.354866H4.80826C4.11707 0.354866 3.55475 0.917188 3.55475 1.60838V3.67898L2.68117 3.94427C1.92649 4.17343 1.43378 4.90955 1.50964 5.69461L1.51024 5.70085C1.65182 7.1666 2.39727 8.52889 3.55543 9.4384L4.82404 10.4346C4.66269 10.6323 4.5657 10.8845 4.5657 11.159V12.8526C4.5657 13.4853 5.08044 14 5.71312 14H10.6039C11.2366 14 11.7513 13.4853 11.7513 12.8526V11.1589C11.7513 10.8767 11.6487 10.6181 11.479 10.418C11.4809 10.4146 11.4832 10.4116 11.4849 10.4081L12.1096 9.16985C12.3634 8.66679 12.4975 8.10296 12.4975 7.53944V6.95034C12.4975 6.79932 12.3751 6.67691 12.2241 6.67691C12.0731 6.67691 11.9507 6.79932 11.9507 6.95034V7.53944C11.9507 8.01784 11.8368 8.49646 11.6213 8.92354L11.0308 10.0942C10.8987 10.041 10.7547 10.0115 10.6039 10.0115H5.71312C5.55827 10.0115 5.41059 10.0425 5.27568 10.0983C5.26627 10.0883 5.25626 10.0786 5.24508 10.0698L4.39568 9.40282H6.13714C6.28816 9.40282 6.41057 9.28038 6.41057 9.12939C6.41057 8.97839 6.28816 8.85595 6.13714 8.85595H3.70908C2.77324 8.04259 2.17417 6.88652 2.05454 5.64821L2.05394 5.64198C2.00305 5.1152 2.33366 4.62127 2.84007 4.46749L3.77068 4.18489L3.57058 4.74718C3.56011 4.77663 3.55475 4.80761 3.55475 4.83887V6.14447C3.55475 6.29549 3.67717 6.41791 3.82819 6.41791C3.9792 6.41791 4.10162 6.29549 4.10162 6.14447V4.88609L4.5847 3.52864C6.84958 2.76802 9.34608 2.76059 11.6154 3.50778L11.9507 3.61819V4.47971V4.77699C11.9507 4.92801 12.0731 5.05043 12.2241 5.05043C12.3752 5.05043 12.4976 4.92801 12.4976 4.77699V4.47971V3.42033V2.46771C12.4976 1.58202 11.777 0.861489 10.8913 0.861489ZM10.0226 13.4531H6.40497V12.9747C6.40497 12.6953 6.6323 12.4679 6.91173 12.4679H9.51588C9.79531 12.4679 10.0226 12.6953 10.0226 12.9747V13.4531ZM5.11257 11.1589C5.11257 10.8278 5.38199 10.5584 5.71312 10.5584H10.6039C10.9351 10.5584 11.2045 10.8278 11.2045 11.1589V12.8526C11.2045 13.1837 10.935 13.4531 10.6039 13.4531H10.5695V12.9747C10.5695 12.3938 10.0969 11.9211 9.51588 11.9211H6.91173C6.33076 11.9211 5.8581 12.3938 5.8581 12.9747V13.4531H5.71312C5.38196 13.4531 5.11257 13.1837 5.11257 12.8525V11.1589ZM5.6537 2.05991V2.66814C5.23228 2.75966 4.81529 2.87409 4.40437 3.01237C4.27203 3.05688 4.1649 3.14939 4.10159 3.27101V1.60838C4.10159 1.21873 4.41859 0.901739 4.80824 0.901739H5.24639C5.47099 0.901739 5.6537 1.08445 5.6537 1.30905V2.05991ZM7.75268 1.22125V2.05993V2.40884C7.23127 2.42565 6.71305 2.47684 6.20057 2.5627V2.05993V1.30908V0.954184C6.20057 0.729583 6.38331 0.546873 6.60789 0.546873H7.34537C7.56997 0.546873 7.75268 0.729583 7.75268 0.954184V1.22125ZM9.85172 1.8157V2.13874V2.52986C9.33867 2.45355 8.82048 2.41113 8.29958 2.40362V2.05993V1.22125C8.29961 0.996648 8.48232 0.813938 8.70692 0.813938H9.44441C9.66901 0.813938 9.85172 0.996648 9.85172 1.22125V1.8157ZM11.9507 3.04247L11.7864 2.98839C11.3303 2.83822 10.867 2.71689 10.3986 2.62422V2.13874V1.8157C10.3986 1.5911 10.5813 1.40839 10.8059 1.40839H10.8913C11.4755 1.40839 11.9507 1.88359 11.9507 2.46771V3.04247Z" fill="currentColor"/>
        <path d="M6.47806 5.3361C6.36986 5.29691 6.24868 5.32962 6.17496 5.41794L5.61187 6.09256L5.04878 5.41794C4.97504 5.32956 4.85385 5.29689 4.74568 5.33607C4.63748 5.37531 4.56543 5.47804 4.56543 5.59313V7.44536C4.56543 7.59635 4.68785 7.7188 4.83887 7.7188C4.98988 7.7188 5.1123 7.59635 5.1123 7.44536V6.34743L5.40195 6.69445C5.45391 6.75668 5.5308 6.79267 5.61187 6.79267C5.69294 6.79267 5.76983 6.75668 5.82179 6.69445L6.11144 6.3474V7.44533C6.11144 7.59641 6.23386 7.71882 6.38488 7.71882C6.53589 7.71882 6.65831 7.59638 6.65831 7.44539V5.59316C6.65831 5.47809 6.58626 5.37531 6.47806 5.3361Z" fill="currentColor"/>
        <path d="M8.90873 5.33613C8.80053 5.29694 8.67937 5.32965 8.60562 5.41799L8.04254 6.09262L7.47945 5.41799C7.4057 5.32965 7.28454 5.29697 7.17634 5.33615C7.06814 5.37539 6.99609 5.47815 6.99609 5.59321V7.44544C6.99609 7.59643 7.11851 7.71888 7.26953 7.71888C7.42055 7.71888 7.54297 7.59643 7.54297 7.44544V6.34751L7.83262 6.69456C7.88457 6.75679 7.96146 6.79278 8.04254 6.79278C8.12361 6.79278 8.2005 6.75679 8.25245 6.69456L8.5421 6.34754V7.44547C8.5421 7.59643 8.66452 7.71885 8.81554 7.71885C8.96656 7.71885 9.08898 7.59641 9.08898 7.44542V5.59318C9.08898 5.47809 9.01693 5.37534 8.90873 5.33613Z" fill="currentColor"/>
        <path d="M11.4274 7.34004L10.6543 5.48781C10.6119 5.38601 10.5124 5.3197 10.402 5.3197C10.2917 5.3197 10.1922 5.38601 10.1497 5.48781L9.37663 7.34004C9.31847 7.47941 9.38429 7.63954 9.52366 7.6977C9.55809 7.71205 9.59374 7.71886 9.62888 7.71886C9.7359 7.71883 9.83754 7.65562 9.88132 7.55067L9.96507 7.34999H10.8389L10.9227 7.55067C10.9808 7.69004 11.141 7.75588 11.2803 7.6977C11.4197 7.63954 11.4855 7.47941 11.4274 7.34004ZM10.1933 6.80315L10.402 6.30309L10.6107 6.80315H10.1933Z" fill="currentColor"/>
    </symbol>

    <symbol id="icon-glove"  viewBox="0 0 12 14">
        <path d="M6.95601 0C5.84499 0 4.79718 0.429237 4.00562 1.20862C3.31722 1.88642 2.89033 2.76201 2.7791 3.70902H2.72902C1.68569 3.70902 0.836914 4.55782 0.836914 5.60113V6.81185C0.836914 7.51 0.975471 8.16327 1.24872 8.75352C1.51042 9.31883 1.88945 9.81435 2.37533 10.2263C2.49477 10.3276 2.62008 10.4229 2.75058 10.5124V12.6601C2.75058 13.3989 3.35166 14 4.09049 14H8.50234C9.24119 14 9.84227 13.3989 9.84227 12.6601V10.0289C10.2248 9.6591 10.5302 9.23137 10.7514 8.75352C11.0246 8.16327 11.1632 7.51 11.1632 6.81185V4.2071C11.1631 1.88732 9.27583 0 6.95601 0ZM8.50234 13.134H4.09049C3.82916 13.134 3.61656 12.9214 3.61656 12.6601V10.9857C4.33204 11.2916 5.1443 11.4539 6.00003 11.4539C7.10216 11.4539 8.13245 11.185 8.97626 10.6863V12.6601C8.97626 12.9214 8.76366 13.134 8.50234 13.134ZM10.2972 6.81185C10.2972 9.03514 8.53011 10.5879 6.00003 10.5879C3.46995 10.5879 1.70289 9.03514 1.70289 6.81185V5.60113C1.70289 5.03532 2.16319 4.575 2.72902 4.575H2.75058V7H3.61656V4.14582C3.64924 2.33699 5.14655 0.865979 6.95601 0.865979C8.79833 0.865979 10.2972 2.36482 10.2972 4.20713V6.81185Z" fill="currentColor"/>
    </symbol>

    <symbol id="icon-cup" viewBox="0 0 12 12">
        <path d="M11.6484 0.866089H10.1085C10.1141 0.695526 10.1172 0.523956 10.1172 0.351562C10.1172 0.157379 9.95975 0 9.76566 0H2.23444C2.04025 0 1.88287 0.157379 1.88287 0.351562C1.88287 0.523956 1.88589 0.695526 1.89148 0.866089H0.351562C0.157379 0.866089 0 1.02347 0 1.21765C0 2.79291 0.411713 4.27908 1.15924 5.40253C1.89816 6.51315 2.88245 7.15018 3.94565 7.21216C4.18671 7.47446 4.44159 7.68832 4.707 7.85147V9.414H4.11722C3.40421 9.414 2.82422 9.99408 2.82422 10.707V11.2968H2.79922C2.60504 11.2968 2.44766 11.4543 2.44766 11.6483C2.44766 11.8425 2.60504 11.9999 2.79922 11.9999H9.20078C9.39496 11.9999 9.55234 11.8425 9.55234 11.6483C9.55234 11.4543 9.39496 11.2968 9.20078 11.2968H9.17578V10.707C9.17578 9.99408 8.5957 9.414 7.88278 9.414H7.293V7.85147C7.55841 7.68832 7.8132 7.47446 8.05426 7.21216C9.11755 7.15018 10.1017 6.51315 10.8408 5.40253C11.5883 4.27908 12 2.79291 12 1.21765C12 1.02347 11.8425 0.866089 11.6484 0.866089ZM1.74463 5.01306C1.12802 4.08636 0.765747 2.87448 0.710541 1.56921H1.93076C2.05756 3.17377 2.4342 4.65683 3.02289 5.8342C3.11664 6.0217 3.21469 6.19876 3.31641 6.36566C2.73166 6.14484 2.19049 5.68323 1.74463 5.01306ZM10.2554 5.01306C9.80951 5.68323 9.26834 6.14484 8.68359 6.36566C8.7854 6.19876 8.88336 6.0217 8.97711 5.8342C9.5658 4.65683 9.94235 3.17377 10.0692 1.56921H11.2895C11.2343 2.87448 10.872 4.08636 10.2554 5.01306Z" fill="#F8C806"/>
    </symbol>

    <symbol id="icon-chat" viewBox="0 0 14 14">
        <path d="M7.01301 0.333344C3.13967 0.333344 0.333008 3.49809 0.333008 7.01003C0.333008 8.13171 0.659674 9.28678 1.23301 10.3417C1.33967 10.5153 1.35301 10.7356 1.27967 10.9426L0.833008 12.4382C0.733008 12.7987 1.03967 13.0658 1.37967 12.959L2.72634 12.5584C3.09301 12.4382 3.37967 12.5917 3.71967 12.7987C4.69301 13.3729 5.90634 13.6667 6.99967 13.6667C10.3063 13.6667 13.6663 11.1095 13.6663 6.99C13.6663 3.438 10.7997 0.333344 7.01301 0.333344Z" fill="currentColor"/>
    </symbol>

    <symbol id="icon-views" viewBox="0 0 14 12">
        <path fill-rule="evenodd" clip-rule="evenodd" d="M4.39808 6.00001C4.39808 7.42223 5.56231 8.5794 6.99971 8.5794C8.4306 8.5794 9.59483 7.42223 9.59483 6.00001C9.59483 4.57132 8.4306 3.41415 6.99971 3.41415C5.56231 3.41415 4.39808 4.57132 4.39808 6.00001ZM10.8241 2.03071C11.9623 2.9099 12.9314 4.19637 13.6273 5.80606C13.6794 5.92889 13.6794 6.07112 13.6273 6.18748C12.2354 9.40687 9.7574 11.3333 6.99968 11.3333H6.99317C4.24195 11.3333 1.7639 9.40687 0.372032 6.18748C0.32 6.07112 0.32 5.92889 0.372032 5.80606C1.7639 2.58667 4.24195 0.666672 6.99317 0.666672H6.99968C8.37854 0.666672 9.68585 1.14506 10.8241 2.03071ZM7.0004 7.60828C7.89146 7.60828 8.61992 6.88424 8.61992 5.99858C8.61992 5.10646 7.89146 4.38242 7.0004 4.38242C6.92235 4.38242 6.8443 4.38888 6.77276 4.40181C6.74674 5.11292 6.16138 5.68181 5.43943 5.68181H5.40691C5.38739 5.78525 5.37439 5.88868 5.37439 5.99858C5.37439 6.88424 6.10284 7.60828 7.0004 7.60828Z" fill="currentColor"/>
    </symbol>

    <symbol id="icon-star" viewBox="0 0 20 20">
        <path d="M14.9317 11.9334C14.7159 12.1426 14.6167 12.4451 14.6659 12.7418L15.4067 16.8418C15.4692 17.1893 15.3226 17.5409 15.0317 17.7418C14.7467 17.9501 14.3676 17.9751 14.0567 17.8084L10.3659 15.8834C10.2376 15.8151 10.0951 15.7784 9.94925 15.7743H9.72341C9.64508 15.7859 9.56841 15.8109 9.49841 15.8493L5.80675 17.7834C5.62425 17.8751 5.41758 17.9076 5.21508 17.8751C4.72175 17.7818 4.39258 17.3118 4.47341 16.8159L5.21508 12.7159C5.26425 12.4168 5.16508 12.1126 4.94925 11.9001L1.94008 8.98342C1.68841 8.73925 1.60091 8.37259 1.71591 8.04175C1.82758 7.71175 2.11258 7.47092 2.45675 7.41675L6.59841 6.81592C6.91341 6.78342 7.19008 6.59175 7.33175 6.30842L9.15674 2.56675C9.20008 2.48342 9.25591 2.40675 9.32341 2.34175L9.39841 2.28342C9.43758 2.24009 9.48258 2.20425 9.53258 2.17509L9.62341 2.14175L9.76508 2.08342H10.1159C10.4292 2.11592 10.7051 2.30342 10.8492 2.58342L12.6984 6.30842C12.8317 6.58092 13.0909 6.77009 13.3901 6.81592L17.5317 7.41675C17.8817 7.46675 18.1742 7.70842 18.2901 8.04175C18.3992 8.37592 18.3051 8.74259 18.0484 8.98342L14.9317 11.9334Z" fill="currentColor"/>
    </symbol>

    <symbol id="icon-arrow" viewBox="0 0 14 14">
        <path d="M6.34025 9.70121C6.30642 9.66825 6.16175 9.5438 6.04275 9.42787C5.29433 8.74821 4.06933 6.9752 3.69542 6.04721C3.63533 5.90628 3.50817 5.54997 3.5 5.3596C3.5 5.17718 3.542 5.00329 3.62717 4.83735C3.74617 4.6305 3.93342 4.46456 4.1545 4.37364C4.30792 4.31511 4.767 4.22418 4.77517 4.22418C5.27742 4.13326 6.0935 4.08325 6.99533 4.08325C7.85458 4.08325 8.63742 4.13326 9.14725 4.2077C9.15542 4.21623 9.72592 4.30715 9.92133 4.4066C10.2783 4.58902 10.5 4.94532 10.5 5.32664V5.3596C10.4912 5.60793 10.2696 6.13018 10.2614 6.13018C9.88692 7.00816 8.722 8.74026 7.94792 9.43639C7.94792 9.43639 7.749 9.63245 7.62475 9.71769C7.44625 9.85067 7.22517 9.91658 7.00408 9.91658C6.75733 9.91658 6.5275 9.84214 6.34025 9.70121Z" fill="currentColor"/>
    </symbol>

    <symbol id="icon-biceps" viewBox="0 0 16 16">
        <path d="M15.798 6.56765C15.6723 6.47997 15.5117 6.45935 15.3679 6.51228L14.3723 6.879C13.6993 6.40054 12.8561 6.13966 11.9677 6.13966C10.74 6.13966 9.59677 6.65024 8.90061 7.49098C8.35888 7.13957 7.70952 7.01333 7.05408 7.14329C6.59553 7.23428 6.17691 7.44467 5.84593 7.73711C5.63645 6.51562 6.33161 5.36882 7.26 4.05699C7.67743 3.83598 8.20742 3.84929 8.76643 3.86345C9.10678 3.87201 9.45869 3.88091 9.79897 3.83476C10.3334 3.7623 10.7621 3.43655 10.9753 2.94109C11.1884 2.4456 11.13 1.91033 10.8151 1.47253L10.1773 0.585915C9.83894 0.115456 9.25699 -0.0978074 8.69485 0.0425868C7.02461 0.459832 5.53621 1.22339 4.27101 2.31211C3.23444 3.20407 2.3467 4.31356 1.63242 5.60976C0.348188 7.94031 0.0154358 10.1472 0.000155821 10.7365C-0.000625362 10.7669 0.0015307 10.7972 0.00662402 10.8271C0.186515 11.8863 0.968291 12.848 2.20793 13.5348C3.38877 14.1891 4.9068 14.5495 6.48235 14.5495C8.02184 14.5495 9.48753 14.211 10.6531 13.5912L13.1847 15.877C13.2707 15.9547 13.3824 15.9977 13.4983 15.9978L15.5294 16H15.5299C15.6542 16 15.7733 15.9507 15.8612 15.8629C15.9492 15.775 15.9986 15.6557 15.9986 15.5313V6.95212C15.9986 6.79885 15.9237 6.6553 15.798 6.56765Z" fill="#D54E49"/>
    </symbol>

    <symbol id="icon-sword" viewBox="0 0 16 16">
        <path d="M15.8626 12.9641L14.1565 11.258L14.8438 10.5707C15.0269 10.3877 15.0269 10.0909 14.8438 9.90781C14.6608 9.72475 14.364 9.72475 14.1809 9.90778L9.9078 14.1809C9.72474 14.3639 9.72474 14.6607 9.9078 14.8438C9.99934 14.9353 10.1193 14.9811 10.2393 14.9811C10.3592 14.9811 10.4792 14.9353 10.5707 14.8438L11.258 14.1565L12.9642 15.8626C13.0557 15.9541 13.1757 15.9999 13.2956 15.9999C13.4156 15.9999 13.5356 15.9541 13.6271 15.8626L15.8626 13.627C16.0457 13.444 16.0457 13.1472 15.8626 12.9641Z" fill="currentColor"/>
        <path d="M3.70661 0.807998C3.37221 0.473687 2.73387 0.244813 1.75515 0.108407C1.08665 0.0152198 0.504155 0.00071984 0.479687 0.000126092C0.351875 -0.00284265 0.227875 0.0467197 0.137313 0.137313C0.0466885 0.227906 -0.00284257 0.351625 0.000126165 0.479718C0.000719913 0.504187 0.0151573 1.08662 0.108344 1.75512C0.244781 2.73374 0.473656 3.37205 0.80806 3.70649L4.43864 7.33703L7.33713 4.43851L3.70661 0.807998Z" fill="currentColor"/>
        <path d="M11.5615 8.66287L8.66309 11.5613L9.93252 12.8307L12.8309 9.9323L11.5615 8.66287Z" fill="currentColor"/>
        <path d="M6.09209 14.1811L4.80147 12.8905L2.5063 10.5953L1.81899 9.90802C1.63595 9.72499 1.33914 9.72499 1.15608 9.90805C0.97302 10.0911 0.97302 10.3879 1.15608 10.571L1.84339 11.2583L0.137273 12.9644C-0.0457576 13.1474 -0.0457576 13.4442 0.137273 13.6273L2.3728 15.8628C2.4607 15.9507 2.57995 16.0001 2.70426 16.0001C2.82858 16.0001 2.94779 15.9507 3.03573 15.8628L4.74185 14.1567L5.42922 14.844C5.52075 14.9356 5.64072 14.9813 5.76066 14.9813C5.88063 14.9813 6.00059 14.9356 6.09209 14.844C6.27516 14.6609 6.27516 14.3642 6.09209 14.1811Z" fill="currentColor"/>
        <path d="M15.8624 0.137282C15.7718 0.0466885 15.6481 -0.00284257 15.52 0.000126166C15.4955 0.000719914 14.9131 0.0151886 14.2446 0.108376C13.2659 0.244813 12.6276 0.473624 12.2931 0.808029L3.16895 9.93227L6.0674 12.8307L15.1916 3.70649C15.526 3.37208 15.7549 2.73377 15.8913 1.75509C15.9845 1.08662 15.999 0.504155 15.9996 0.479687C16.0026 0.351594 15.953 0.227875 15.8624 0.137282Z" fill="currentColor"/>
    </symbol>


    <symbol id="icon-like" viewBox="0 0 14 14">
        <path d="M14.0002 6.13736C14.0002 5.36534 13.3565 4.73722 12.5653 4.73722H7.68102L8.32034 3.06001C8.32666 3.04347 8.33188 3.02649 8.33601 3.00926C8.56816 2.03779 8.23568 1.42789 7.91587 1.0873C7.52507 0.671099 6.97082 0.477943 6.66082 0.531782C6.541 0.552536 6.4366 0.625407 6.37576 0.730708L4.1709 4.54656V5.25027V12.5151V12.6824L6.10528 13.4485C6.15335 13.4676 6.20459 13.4773 6.2563 13.4773H11.4791C12.2703 13.4773 12.914 12.8492 12.914 12.0772C12.914 11.7866 12.8228 11.5163 12.6668 11.2923C13.0791 11.0461 13.3548 10.6025 13.3548 10.0972C13.3548 9.77162 13.2403 9.47166 13.0485 9.23357C13.3944 8.97769 13.6182 8.57254 13.6182 8.11729C13.6182 7.81564 13.5199 7.53597 13.353 7.30715C13.7426 7.05655 14.0002 6.62575 14.0002 6.13736Z" fill="currentColor"/>
        <path d="M3.3504 4.84009H0.410156C0.183641 4.84009 0 5.02373 0 5.25024V12.5151C0 12.7416 0.183641 12.9252 0.410156 12.9252H3.3504V4.84009Z" fill="currentColor"/>
    </symbol>

    <symbol id="icon-arrowRight" viewBox="0 0 8 12">
        <path d="M0.834521 10.4201C0.514521 10.7201 0.514526 11.2401 0.814526 11.5601C0.974526 11.7201 1.17453 11.8001 1.39453 11.8001C1.59453 11.8001 1.79454 11.7201 1.95454 11.5801L7.15454 6.58007C7.31454 6.42007 7.39453 6.22007 7.39453 6.00007C7.39453 5.78007 7.31454 5.58007 7.15454 5.42007L1.95454 0.420071C1.63454 0.120071 1.13453 0.120073 0.814526 0.440073C0.514526 0.760073 0.514521 1.26007 0.834521 1.58007L5.43452 6.00007L0.834521 10.4201Z" fill="white"/>
    </symbol>

</svg>